<svg width="36" height="35" viewBox="0 0 36 35" fill="none" xmlns="http://www.w3.org/2000/svg">
<path d="M21.886 11.6605V8.63496C21.886 7.83253 21.5646 7.06296 20.9924 6.49555C20.4202 5.92814 19.6442 5.60938 18.835 5.60938H8.15648C7.3473 5.60938 6.57126 5.92814 5.99909 6.49555C5.42691 7.06296 5.10547 7.83253 5.10547 8.63496V26.7885C5.10547 27.5909 5.42691 28.3605 5.99909 28.9279C6.57126 29.4953 7.3473 29.8141 8.15648 29.8141H18.835C19.6442 29.8141 20.4202 29.4953 20.9924 28.9279C21.5646 28.3605 21.886 27.5909 21.886 26.7885V23.7629M12.733 17.7117H31.0391M31.0391 17.7117L26.4625 13.1733M31.0391 17.7117L26.4625 22.2501" stroke="#39AAE3" stroke-width="1.9" stroke-linecap="round" stroke-linejoin="round"/>
</svg>
