<svg width="29" height="37" viewBox="0 0 29 37" fill="none" xmlns="http://www.w3.org/2000/svg">
<rect width="27.7826" height="34.5781" transform="translate(0 1.42188)" fill="white"/>
<path d="M16.0927 1.42188C17.1976 1.42208 18.0962 2.52724 18.0966 3.88672V6.21094C18.0966 6.52882 18.3247 6.93573 18.5654 7.0498C18.5872 7.06018 19.1141 7.30978 19.7324 7.75C20.3557 8.1927 20.7877 8.62172 20.8085 8.64258C21.0087 8.8427 21.409 8.88119 21.6318 8.72266L23.2695 7.56055C23.7315 7.23212 24.2727 7.14634 24.79 7.31641C25.3083 7.48698 25.7409 7.8947 26.0078 8.46289L27.5146 11.6719C27.7817 12.2397 27.8512 12.9046 27.7128 13.542C27.5741 14.1787 27.243 14.7096 26.7812 15.0381L25.1435 16.2012C24.9205 16.3596 24.7471 16.8055 24.788 17.1182C24.7923 17.1498 24.8779 17.8108 24.8779 18.7119C24.8778 19.6146 24.7931 20.277 24.789 20.3047C24.7482 20.6176 24.9207 21.0622 25.1435 21.2207L26.7802 22.3838C27.2423 22.7115 27.5741 23.2441 27.7128 23.8818C27.8511 24.5183 27.7813 25.1819 27.5146 25.75L26.0078 28.96C25.7412 29.5278 25.3083 29.9359 24.79 30.1064C24.2724 30.2764 23.7314 30.1897 23.2695 29.8613L21.6328 28.7002C21.41 28.542 21.0094 28.5805 20.8095 28.7803C20.7881 28.8022 20.3554 29.2313 19.7324 29.6738C19.1142 30.1136 18.5872 30.3631 18.5654 30.373C18.3246 30.487 18.0966 30.8951 18.0966 31.2119V33.5352C18.0966 34.8937 17.1978 36 16.0927 36H13.079C11.9741 35.9998 11.0751 34.8936 11.0751 33.5352V31.2119C11.0751 30.8946 10.8472 30.4869 10.6064 30.373C10.5814 30.3616 10.0561 30.1127 9.43939 29.6738C8.814 29.2293 8.38068 28.7987 8.36224 28.7803C8.16256 28.5806 7.763 28.5412 7.53998 28.7002L5.90228 29.8623C4.94471 30.5406 3.71697 30.1363 3.164 28.96L1.65717 25.751C1.3904 25.1832 1.31925 24.5174 1.45795 23.8809C1.59665 23.2432 1.92858 22.7119 2.39056 22.3838L4.02826 21.2207C4.25098 21.0624 4.42368 20.616 4.38275 20.3037C4.37836 20.271 4.29388 19.6105 4.29388 18.7109C4.2939 17.8082 4.37894 17.1454 4.38275 17.1172C4.42385 16.8046 4.25115 16.3596 4.02826 16.2012L2.39056 15.0381C1.92888 14.71 1.59665 14.1777 1.45795 13.54C1.31941 12.9036 1.39047 12.2389 1.65717 11.6709L3.164 8.46191C3.43077 7.89417 3.86292 7.48608 4.3808 7.31543C4.89937 7.14525 5.43926 7.23156 5.90131 7.55957L7.53998 8.72266C7.76352 8.88122 8.16312 8.84238 8.36322 8.64258C8.38103 8.62452 8.8141 8.19405 9.43939 7.75C10.0542 7.31297 10.578 7.06283 10.6054 7.0498C10.8463 6.9361 11.0741 6.52886 11.0742 6.21191V3.88672C11.0742 2.52751 11.9741 1.42205 13.079 1.42188H16.0927ZM13.0781 2.64453C12.5217 2.64497 12.0694 3.20148 12.0693 3.88574V6.21094C12.0693 7.02891 11.5823 7.89864 10.9619 8.19141C10.9438 8.19966 10.4758 8.4248 9.93744 8.80762C9.38969 9.19711 9.00173 9.57921 8.99017 9.59082C8.47445 10.1062 7.61929 10.1901 7.04291 9.78125L5.40424 8.61719C5.17245 8.45362 4.89974 8.40967 4.63861 8.49609C4.37665 8.58218 4.15933 8.78738 4.02533 9.07227L2.51849 12.2822C2.38486 12.568 2.34867 12.9022 2.41888 13.2236C2.48885 13.5455 2.6559 13.8141 2.88763 13.9785L3.41693 14.3545C3.41982 14.3565 3.52888 14.4339 4.52533 15.1416C5.10177 15.5504 5.47109 16.5035 5.36517 17.3115C5.36351 17.3248 5.289 17.9167 5.289 18.7109C5.289 19.5037 5.36331 20.0948 5.36517 20.1104C5.47046 20.9172 5.10145 21.8715 4.52533 22.2803L3.41986 23.0635C3.3433 23.1211 3.19624 23.2253 2.88959 23.4424C2.65786 23.6076 2.4908 23.876 2.42084 24.1982C2.35068 24.5193 2.38555 24.854 2.51947 25.1396L4.02631 28.3496C4.30439 28.9414 4.92326 29.1452 5.40619 28.8027C5.68075 28.6082 5.83933 28.4965 5.93744 28.4258L7.04388 27.6406C7.61836 27.2311 8.47481 27.3152 8.99115 27.8301C8.99459 27.8347 9.38478 28.2218 9.93744 28.6143C10.4846 29.0033 10.9513 29.2255 10.9638 29.2314C11.5845 29.5243 12.0703 30.3948 12.0703 31.2119V33.5352C12.0703 34.2197 12.5234 34.7762 13.08 34.7764H16.0937C16.6504 34.7764 17.1035 34.2198 17.1035 33.5352V31.2119C17.1035 30.3948 17.5896 29.5244 18.2099 29.2314C18.2143 29.2299 18.689 29.003 19.2363 28.6143C19.7856 28.2242 20.1749 27.8395 20.1835 27.8301C20.6995 27.3153 21.5554 27.2316 22.1308 27.6406L23.7675 28.8027C23.9998 28.9674 24.2721 29.011 24.5331 28.9248C24.7949 28.838 25.0131 28.6335 25.1474 28.3477L26.6542 25.1387C26.788 24.8536 26.8232 24.5185 26.7529 24.1973C26.6825 23.875 26.5162 23.6076 26.2841 23.4424L24.6464 22.2803C24.0706 21.8715 23.7022 20.9181 23.8076 20.1104C23.8082 20.1054 23.8837 19.5109 23.8837 18.7109C23.8837 17.9115 23.808 17.3174 23.8076 17.3105C23.7017 16.5034 24.0704 15.5505 24.6464 15.1416L26.2831 13.9785C26.5152 13.8141 26.6806 13.5455 26.7509 13.2236C26.8212 12.9025 26.7863 12.568 26.6523 12.2822L25.1454 9.07227C25.0114 8.78732 24.7939 8.58312 24.5322 8.49707C24.2695 8.41035 23.9983 8.45398 23.7665 8.61914L22.1279 9.78125C21.5527 10.1899 20.6959 10.1062 20.1806 9.59082C20.1691 9.57894 19.7815 9.19655 19.2343 8.80762C18.6873 8.41926 18.2129 8.19273 18.2079 8.19043C17.5882 7.89784 17.1017 7.02852 17.1015 6.21094V3.88574C17.1014 3.20121 16.6484 2.64453 16.0917 2.64453H13.0781ZM14.5849 11.9844C17.6004 11.9845 20.0546 15.0029 20.0546 18.7119C20.0544 22.4207 17.6003 25.4383 14.5849 25.4385C11.5694 25.4385 9.11539 22.4208 9.11517 18.7119C9.11519 15.0028 11.5693 11.9844 14.5849 11.9844ZM14.5849 13.209C12.1176 13.209 10.1103 15.6785 10.1103 18.7129C10.1105 21.7467 12.1178 24.2158 14.5849 24.2158C17.0518 24.2155 19.0593 21.7465 19.0595 18.7129C19.0595 15.6786 17.0519 13.2093 14.5849 13.209Z" fill="#39AAE3"/>
<path d="M16.0927 1.42188L16.0928 0.971875H16.0927V1.42188ZM18.0966 3.88672H18.5466V3.88658L18.0966 3.88672ZM18.5654 7.0498L18.7582 6.64322L18.7581 6.64317L18.5654 7.0498ZM19.7324 7.75L19.4713 8.11656L19.4718 8.11689L19.7324 7.75ZM20.8085 8.64258L20.4904 8.96083L20.4904 8.96085L20.8085 8.64258ZM21.6318 8.72266L21.3714 8.35566L21.3709 8.356L21.6318 8.72266ZM23.2695 7.56055L23.5299 7.92754L23.5302 7.92731L23.2695 7.56055ZM24.79 7.31641L24.9307 6.88896L24.9305 6.88892L24.79 7.31641ZM26.0078 8.46289L26.4151 8.27162L26.4151 8.27161L26.0078 8.46289ZM27.5146 11.6719L27.1073 11.8631L27.1074 11.8634L27.5146 11.6719ZM27.7128 13.542L28.1525 13.6378L28.1526 13.6375L27.7128 13.542ZM26.7812 15.0381L27.0418 15.405L27.042 15.4048L26.7812 15.0381ZM25.1435 16.2012L24.8829 15.8343L24.8829 15.8343L25.1435 16.2012ZM24.788 17.1182L24.3418 17.1765L24.3421 17.1782L24.788 17.1182ZM24.8779 18.7119L25.3279 18.7119V18.7119H24.8779ZM24.789 20.3047L24.3437 20.2393L24.3428 20.2465L24.789 20.3047ZM25.1435 21.2207L24.8826 21.5874L24.8828 21.5875L25.1435 21.2207ZM26.7802 22.3838L26.5195 22.7506L26.5199 22.7508L26.7802 22.3838ZM27.7128 23.8818L28.1526 23.7863L28.1525 23.7862L27.7128 23.8818ZM27.5146 25.75L27.9219 25.9412L27.5146 25.75ZM26.0078 28.96L25.6004 28.7687L25.6004 28.7688L26.0078 28.96ZM24.79 30.1064L24.9304 30.534L24.9307 30.5339L24.79 30.1064ZM23.2695 29.8613L23.5302 29.4946L23.5298 29.4943L23.2695 29.8613ZM21.6328 28.7002L21.3723 29.0672L21.3724 29.0672L21.6328 28.7002ZM20.8095 28.7803L20.4914 28.4619L20.487 28.4665L20.8095 28.7803ZM19.7324 29.6738L19.4718 29.307L19.4715 29.3071L19.7324 29.6738ZM18.5654 30.373L18.3784 29.9637L18.3729 29.9663L18.5654 30.373ZM13.079 36L13.079 36.45H13.079V36ZM10.6064 30.373L10.7987 29.9662L10.7941 29.9641L10.6064 30.373ZM9.43939 29.6738L9.70033 29.3072L9.70008 29.307L9.43939 29.6738ZM8.36224 28.7803L8.68051 28.4621L8.68041 28.462L8.36224 28.7803ZM7.53998 28.7002L7.8004 29.0672L7.80121 29.0666L7.53998 28.7002ZM5.90228 29.8623L6.1624 30.2295L6.1627 30.2293L5.90228 29.8623ZM3.164 28.96L2.75667 29.1512L2.75675 29.1514L3.164 28.96ZM1.65717 25.751L2.06449 25.5597L2.06446 25.5596L1.65717 25.751ZM1.45795 23.8809L1.89763 23.9767L1.89767 23.9765L1.45795 23.8809ZM2.39056 22.3838L2.13 22.0169L2.12999 22.0169L2.39056 22.3838ZM4.02826 21.2207L4.28882 21.5876L4.289 21.5875L4.02826 21.2207ZM4.38275 20.3037L4.82894 20.2452L4.82874 20.2438L4.38275 20.3037ZM4.29388 18.7109L3.84388 18.7109V18.7109H4.29388ZM4.38275 17.1172L4.82869 17.1776L4.82891 17.1758L4.38275 17.1172ZM4.02826 16.2012L4.28895 15.8344L4.28882 15.8343L4.02826 16.2012ZM2.39056 15.0381L2.12988 15.4049L2.13 15.405L2.39056 15.0381ZM1.45795 13.54L1.89767 13.4444L1.89765 13.4443L1.45795 13.54ZM1.65717 11.6709L1.24984 11.4796L1.24983 11.4797L1.65717 11.6709ZM3.164 8.46191L2.75672 8.27055L2.75667 8.27065L3.164 8.46191ZM4.3808 7.31543L4.24048 6.88786L4.23997 6.88803L4.3808 7.31543ZM5.90131 7.55957L5.64082 7.92651L5.64085 7.92653L5.90131 7.55957ZM7.53998 8.72266L7.27952 9.08962L7.27963 9.0897L7.53998 8.72266ZM8.36322 8.64258L8.68119 8.96102L8.68362 8.95856L8.36322 8.64258ZM9.43939 7.75L9.69994 8.1169L9.70012 8.11677L9.43939 7.75ZM10.6054 7.0498L10.4133 6.64287L10.4124 6.64328L10.6054 7.0498ZM11.0742 6.21191L11.5242 6.21201V6.21191H11.0742ZM13.079 1.42188V0.971875H13.079L13.079 1.42188ZM13.0781 2.64453V2.19453L13.0777 2.19453L13.0781 2.64453ZM12.0693 3.88574L11.6193 3.88566V3.88574H12.0693ZM10.9619 8.19141L11.1491 8.60062L11.1539 8.59838L10.9619 8.19141ZM9.93744 8.80762L10.1982 9.17435L10.1982 9.17435L9.93744 8.80762ZM8.99017 9.59082L9.30826 9.90913L9.30924 9.90814L8.99017 9.59082ZM7.04291 9.78125L6.7823 10.1481L6.78256 10.1483L7.04291 9.78125ZM5.40424 8.61719L5.66484 8.25033L5.6637 8.24952L5.40424 8.61719ZM4.63861 8.49609L4.7791 8.9236L4.78 8.9233L4.63861 8.49609ZM4.02533 9.07227L3.61813 8.88073L3.61798 8.88104L4.02533 9.07227ZM2.51849 12.2822L2.11114 12.091L2.11087 12.0916L2.51849 12.2822ZM2.41888 13.2236L2.85862 13.128L2.85852 13.1276L2.41888 13.2236ZM2.88763 13.9785L3.14823 13.6117L3.14807 13.6115L2.88763 13.9785ZM3.41693 14.3545L3.15634 14.7214L3.15654 14.7215L3.41693 14.3545ZM4.52533 15.1416L4.26475 15.5085L4.26502 15.5087L4.52533 15.1416ZM5.36517 17.3115L4.91898 17.253L4.91869 17.2554L5.36517 17.3115ZM5.289 18.7109L4.839 18.7109V18.7109H5.289ZM5.36517 20.1104L4.91834 20.1638L4.91896 20.1686L5.36517 20.1104ZM4.52533 22.2803L4.78547 22.6475L4.78574 22.6473L4.52533 22.2803ZM3.41986 23.0635L3.15961 22.6961L3.14923 22.704L3.41986 23.0635ZM2.88959 23.4424L2.62955 23.0751L2.62835 23.076L2.88959 23.4424ZM2.42084 24.1982L2.86046 24.2943L2.86059 24.2937L2.42084 24.1982ZM2.51947 25.1396L2.11202 25.3307L2.11212 25.3309L2.51947 25.1396ZM4.02631 28.3496L3.61896 28.5408L3.61903 28.541L4.02631 28.3496ZM5.40619 28.8027L5.14604 28.4356L5.14587 28.4357L5.40619 28.8027ZM5.93744 28.4258L5.67701 28.0588L5.67437 28.0607L5.93744 28.4258ZM7.04388 27.6406L7.30431 28.0076L7.3051 28.0071L7.04388 27.6406ZM8.99115 27.8301L9.35194 27.5611L9.33224 27.5347L9.3089 27.5114L8.99115 27.8301ZM9.93744 28.6143L10.1982 28.2475L10.198 28.2474L9.93744 28.6143ZM10.9638 29.2314L11.1558 28.8245L11.1551 28.8241L10.9638 29.2314ZM13.08 34.7764L13.0799 35.2264H13.08V34.7764ZM18.2099 29.2314L18.0607 28.8069L18.0388 28.8146L18.0178 28.8245L18.2099 29.2314ZM19.2363 28.6143L18.9757 28.2474L18.9757 28.2474L19.2363 28.6143ZM20.1835 27.8301L19.8657 27.5115L19.8585 27.5187L19.8517 27.5261L20.1835 27.8301ZM22.1308 27.6406L21.8701 28.0074L21.8703 28.0075L22.1308 27.6406ZM23.7675 28.8027L23.507 29.1697L23.5072 29.1698L23.7675 28.8027ZM24.5331 28.9248L24.6743 29.3521L24.6748 29.3519L24.5331 28.9248ZM25.1474 28.3477L25.5546 28.5391L25.5547 28.5389L25.1474 28.3477ZM26.6542 25.1387L27.0616 25.3299L27.0616 25.3298L26.6542 25.1387ZM26.7529 24.1973L26.3132 24.2932L26.3133 24.2935L26.7529 24.1973ZM26.2841 23.4424L26.5451 23.0758L26.5445 23.0754L26.2841 23.4424ZM24.6464 22.2803L24.3859 22.6472L24.386 22.6473L24.6464 22.2803ZM23.8076 20.1104L24.2538 20.1686L24.2541 20.1662L23.8076 20.1104ZM23.8837 18.7109H24.3337V18.7109L23.8837 18.7109ZM23.8076 17.3105L24.2568 17.2841L24.2558 17.268L24.2537 17.252L23.8076 17.3105ZM24.6464 15.1416L24.9069 15.5086L24.9071 15.5084L24.6464 15.1416ZM26.2831 13.9785L26.0229 13.6114L26.0225 13.6117L26.2831 13.9785ZM26.7509 13.2236L26.3113 13.1274L26.3113 13.1276L26.7509 13.2236ZM26.6523 12.2822L27.0597 12.0912L27.0596 12.091L26.6523 12.2822ZM25.1454 9.07227L25.5528 8.88104L25.5526 8.88072L25.1454 9.07227ZM24.5322 8.49707L24.3911 8.92438L24.3916 8.92456L24.5322 8.49707ZM23.7665 8.61914L24.0269 8.98621L24.0277 8.9856L23.7665 8.61914ZM22.1279 9.78125L21.8676 9.41419L21.8672 9.41441L22.1279 9.78125ZM20.1806 9.59082L19.8574 9.90403L19.8624 9.90899L20.1806 9.59082ZM19.2343 8.80762L19.495 8.44084L19.4948 8.44069L19.2343 8.80762ZM18.2079 8.19043L18.0158 8.59738L18.0195 8.59907L18.2079 8.19043ZM17.1015 6.21094H16.6515V6.21104L17.1015 6.21094ZM17.1015 3.88574H17.5515V3.88566L17.1015 3.88574ZM14.5849 11.9844L14.5849 11.5344H14.5849L14.5849 11.9844ZM20.0546 18.7119L20.5046 18.7119V18.7119L20.0546 18.7119ZM14.5849 25.4385L14.5849 25.8885H14.5849L14.5849 25.4385ZM9.11517 18.7119L8.66517 18.7119V18.7119L9.11517 18.7119ZM14.5849 13.209L14.585 12.759H14.5849V13.209ZM10.1103 18.7129L9.66029 18.7129V18.7129L10.1103 18.7129ZM14.5849 24.2158V24.6658H14.585L14.5849 24.2158ZM19.0595 18.7129L19.5095 18.7129V18.7129L19.0595 18.7129ZM16.0927 1.42188L16.0926 1.87187C16.8665 1.87202 17.6463 2.68426 17.6466 3.88685L18.0966 3.88672L18.5466 3.88658C18.5462 2.37021 17.5287 0.972137 16.0928 0.971875L16.0927 1.42188ZM18.0966 3.88672H17.6466V6.21094H18.0966H18.5466V3.88672H18.0966ZM18.0966 6.21094H17.6466C17.6466 6.46638 17.7342 6.72308 17.848 6.92647C17.9576 7.12243 18.1333 7.34299 18.3726 7.45644L18.5654 7.0498L18.7581 6.64317C18.7634 6.64567 18.7484 6.63918 18.7195 6.60822C18.6922 6.57899 18.6618 6.5378 18.6335 6.48712C18.573 6.37908 18.5466 6.27339 18.5466 6.21094H18.0966ZM18.5654 7.0498L18.3725 7.45639C18.3825 7.46113 18.8832 7.6978 19.4713 8.11656L19.7324 7.75L19.9934 7.38344C19.345 6.92176 18.792 6.65922 18.7582 6.64322L18.5654 7.0498ZM19.7324 7.75L19.4718 8.11689C20.0667 8.53935 20.4787 8.94917 20.4904 8.96083L20.8085 8.64258L21.1267 8.32432C21.0966 8.29427 20.6448 7.84604 19.9929 7.38311L19.7324 7.75ZM20.8085 8.64258L20.4904 8.96085C20.6815 9.15186 20.9386 9.24276 21.1683 9.26501C21.3965 9.28713 21.6695 9.24812 21.8927 9.08931L21.6318 8.72266L21.3709 8.356C21.3734 8.35423 21.3656 8.36027 21.3422 8.36532C21.3193 8.37028 21.2891 8.3725 21.2551 8.36921C21.1789 8.36182 21.1358 8.33342 21.1267 8.3243L20.8085 8.64258ZM21.6318 8.72266L21.8922 9.08965L23.5299 7.92754L23.2695 7.56055L23.0091 7.19356L21.3714 8.35566L21.6318 8.72266ZM23.2695 7.56055L23.5302 7.92731C23.8804 7.67838 24.2733 7.62024 24.6494 7.7439L24.79 7.31641L24.9305 6.88892C24.272 6.67243 23.5826 6.78585 23.0087 7.19378L23.2695 7.56055ZM24.79 7.31641L24.6493 7.74385C25.0317 7.86972 25.3774 8.17934 25.6004 8.65417L26.0078 8.46289L26.4151 8.27161C26.1044 7.61007 25.5848 7.10425 24.9307 6.88896L24.79 7.31641ZM26.0078 8.46289L25.6004 8.65416L27.1073 11.8631L27.5146 11.6719L27.9219 11.4806L26.4151 8.27162L26.0078 8.46289ZM27.5146 11.6719L27.1074 11.8634C27.3304 12.3374 27.3915 12.9009 27.2731 13.4465L27.7128 13.542L28.1526 13.6375C28.3109 12.9082 28.2331 12.142 27.9218 11.4803L27.5146 11.6719ZM27.7128 13.542L27.2731 13.4462C27.1545 13.9907 26.8775 14.4174 26.5204 14.6714L26.7812 15.0381L27.042 15.4048C27.6085 15.0019 27.9937 14.3667 28.1525 13.6378L27.7128 13.542ZM26.7812 15.0381L26.5206 14.6712L24.8829 15.8343L25.1435 16.2012L25.4041 16.5681L27.0418 15.405L26.7812 15.0381ZM25.1435 16.2012L24.8829 15.8343C24.6705 15.9852 24.5293 16.2277 24.4473 16.439C24.3628 16.6567 24.3088 16.9243 24.3418 17.1765L24.788 17.1182L25.2342 17.0598C25.2263 16.9994 25.2386 16.8877 25.2863 16.7646C25.3087 16.7071 25.3347 16.6578 25.3601 16.6206C25.3725 16.6023 25.3835 16.5889 25.3921 16.5797C25.4008 16.5703 25.4052 16.5673 25.4041 16.568L25.1435 16.2012ZM24.788 17.1182L24.3421 17.1782C24.3446 17.1969 24.4279 17.8368 24.4279 18.7119H24.8779H25.3279C25.3279 17.7848 25.24 17.1028 25.234 17.0581L24.788 17.1182ZM24.8779 18.7119L24.4279 18.7119C24.4279 19.1495 24.4073 19.5291 24.3863 19.8019C24.3758 19.9382 24.3652 20.0474 24.3571 20.1235C24.3488 20.202 24.3435 20.2414 24.3438 20.2393L24.789 20.3047L25.2342 20.3701C25.2411 20.3232 25.3278 19.6388 25.3279 18.7119L24.8779 18.7119ZM24.789 20.3047L24.3428 20.2465C24.3099 20.4985 24.3635 20.7655 24.4478 20.9831C24.5296 21.1944 24.6705 21.4365 24.8826 21.5874L25.1435 21.2207L25.4044 20.854C25.4054 20.8547 25.401 20.8517 25.3923 20.8424C25.3837 20.8331 25.3728 20.8197 25.3604 20.8015C25.3352 20.7645 25.3092 20.7154 25.287 20.6581C25.2396 20.5355 25.2273 20.4238 25.2352 20.3628L24.789 20.3047ZM25.1435 21.2207L24.8828 21.5875L26.5195 22.7506L26.7802 22.3838L27.0409 22.017L25.4042 20.8539L25.1435 21.2207ZM26.7802 22.3838L26.5199 22.7508C26.8767 23.0039 27.1544 23.4318 27.2731 23.9775L27.7128 23.8818L28.1525 23.7862C27.9938 23.0564 27.6079 22.4191 27.0405 22.0167L26.7802 22.3838ZM27.7128 23.8818L27.2731 23.9774C27.3913 24.5216 27.3301 25.0841 27.1072 25.5588L27.5146 25.75L27.9219 25.9412C28.2324 25.2798 28.3109 24.5149 28.1526 23.7863L27.7128 23.8818ZM27.5146 25.75L27.1072 25.5588L25.6004 28.7687L26.0078 28.96L26.4151 29.1512L27.9219 25.9412L27.5146 25.75ZM26.0078 28.96L25.6004 28.7688C25.3777 29.2431 25.0318 29.5531 24.6493 29.679L24.79 30.1064L24.9307 30.5339C25.5848 30.3186 26.1047 29.8124 26.4151 29.1512L26.0078 28.96ZM24.79 30.1064L24.6496 29.6789C24.2736 29.8024 23.8808 29.7438 23.5302 29.4946L23.2695 29.8613L23.0087 30.2281C23.582 30.6357 24.2712 30.7505 24.9304 30.534L24.79 30.1064ZM23.2695 29.8613L23.5298 29.4943L21.8931 28.3332L21.6328 28.7002L21.3724 29.0672L23.0091 30.2283L23.2695 29.8613ZM21.6328 28.7002L21.8932 28.3332C21.67 28.1748 21.3972 28.136 21.1691 28.1581C20.9398 28.1803 20.6826 28.271 20.4914 28.4619L20.8095 28.7803L21.1276 29.0986C21.1364 29.0898 21.1794 29.0614 21.2559 29.0539C21.29 29.0506 21.3204 29.0528 21.3435 29.0578C21.367 29.0629 21.3748 29.0689 21.3723 29.0672L21.6328 28.7002ZM20.8095 28.7803L20.487 28.4665C20.4881 28.4653 20.4624 28.4912 20.4112 28.5394C20.3615 28.5862 20.29 28.6521 20.2001 28.7308C20.0198 28.8887 19.768 29.0965 19.4718 29.307L19.7324 29.6738L19.993 30.0407C20.6433 29.5787 21.0966 29.1305 21.1321 29.0941L20.8095 28.7803ZM19.7324 29.6738L19.4715 29.3071C19.1784 29.5157 18.9063 29.6794 18.7054 29.792C18.5034 29.9051 18.3772 29.9643 18.3784 29.9637L18.5654 30.373L18.7523 30.7824C18.7926 30.764 19.346 30.501 19.9932 30.0405L19.7324 29.6738ZM18.5654 30.373L18.3729 29.9663C18.133 30.0798 17.9573 30.3011 17.8479 30.4969C17.7343 30.7002 17.6466 30.9569 17.6466 31.2119H18.0966H18.5466C18.5466 31.1501 18.573 31.0443 18.6335 30.9359C18.6619 30.8851 18.6924 30.8438 18.7197 30.8145C18.7486 30.7835 18.7634 30.7772 18.7579 30.7798L18.5654 30.373ZM18.0966 31.2119H17.6466V33.5352H18.0966H18.5466V31.2119H18.0966ZM18.0966 33.5352H17.6466C17.6466 34.7368 16.8666 35.55 16.0927 35.55V36V36.45C17.529 36.45 18.5466 35.0506 18.5466 33.5352H18.0966ZM16.0927 36V35.55H13.079V36V36.45H16.0927V36ZM13.079 36L13.0791 35.55C12.3052 35.5499 11.5251 34.7366 11.5251 33.5352H11.0751H10.6251C10.6251 35.0506 11.643 36.4498 13.079 36.45L13.079 36ZM11.0751 33.5352H11.5251V31.2119H11.0751H10.6251V33.5352H11.0751ZM11.0751 31.2119H11.5251C11.5251 30.9568 11.4376 30.7001 11.3239 30.4966C11.2144 30.3008 11.0387 30.0796 10.7986 29.9662L10.6064 30.373L10.4141 30.7799C10.4085 30.7773 10.4234 30.7836 10.4522 30.8145C10.4795 30.8437 10.5099 30.8849 10.5383 30.9357C10.5987 31.0439 10.6251 31.1497 10.6251 31.2119H11.0751ZM10.6064 30.373L10.7941 29.9641C10.7949 29.9645 10.7632 29.9496 10.7046 29.9197C10.6469 29.8904 10.5649 29.8473 10.4647 29.7911C10.264 29.6787 9.99271 29.5153 9.70033 29.3072L9.43939 29.6738L9.17845 30.0404C9.82442 30.5002 10.3761 30.7625 10.4187 30.782L10.6064 30.373ZM9.43939 29.6738L9.70008 29.307C9.10311 28.8827 8.68964 28.4713 8.68051 28.4621L8.36224 28.7803L8.04397 29.0984C8.07171 29.1262 8.52489 29.5759 9.1787 30.0406L9.43939 29.6738ZM8.36224 28.7803L8.68041 28.462C8.48982 28.2715 8.23324 28.1803 8.00367 28.1579C7.77542 28.1356 7.50226 28.1744 7.27875 28.3338L7.53998 28.7002L7.80121 29.0666C7.79873 29.0684 7.80638 29.0624 7.8295 29.0574C7.8522 29.0525 7.88224 29.0503 7.91606 29.0536C7.99194 29.061 8.03498 29.0894 8.04408 29.0985L8.36224 28.7803ZM7.53998 28.7002L7.27956 28.3332L5.64187 29.4953L5.90228 29.8623L6.1627 30.2293L7.8004 29.0672L7.53998 28.7002ZM5.90228 29.8623L5.64216 29.4951C5.27926 29.7522 4.88161 29.7976 4.52223 29.6792C4.15778 29.5592 3.80166 29.2587 3.57125 28.7685L3.164 28.96L2.75675 29.1514C3.07931 29.8376 3.61355 30.3275 4.2406 30.534C4.87272 30.7423 5.56773 30.6508 6.1624 30.2295L5.90228 29.8623ZM3.164 28.96L3.57133 28.7687L2.06449 25.5597L1.65717 25.751L1.24984 25.9422L2.75667 29.1512L3.164 28.96ZM1.65717 25.751L2.06446 25.5596C1.8414 25.0848 1.77917 24.5204 1.89763 23.9767L1.45795 23.8809L1.01826 23.7851C0.859338 24.5145 0.939399 25.2815 1.24988 25.9423L1.65717 25.751ZM1.45795 23.8809L1.89767 23.9765C2.01625 23.4313 2.29387 23.0044 2.65114 22.7507L2.39056 22.3838L2.12999 22.0169C1.56329 22.4194 1.17706 23.055 1.01823 23.7852L1.45795 23.8809ZM2.39056 22.3838L2.65113 22.7507L4.28882 21.5876L4.02826 21.2207L3.7677 20.8538L2.13 22.0169L2.39056 22.3838ZM4.02826 21.2207L4.289 21.5875C4.50147 21.4364 4.6424 21.1935 4.72409 20.9822C4.80826 20.7646 4.86194 20.4971 4.82894 20.2452L4.38275 20.3037L3.93657 20.3622C3.94448 20.4226 3.93228 20.5345 3.88466 20.6576C3.8624 20.7152 3.83638 20.7645 3.81114 20.8017C3.78456 20.8408 3.76731 20.8541 3.76752 20.8539L4.02826 21.2207ZM4.38275 20.3037L4.82874 20.2438C4.82875 20.2438 4.82872 20.2436 4.82866 20.2431C4.8286 20.2427 4.82851 20.242 4.82841 20.2412C4.82819 20.2395 4.8279 20.2372 4.82753 20.2343C4.82679 20.2284 4.82577 20.2202 4.82452 20.2096C4.82201 20.1885 4.81857 20.1585 4.81451 20.1201C4.80639 20.0435 4.79582 19.9341 4.78535 19.7979C4.76437 19.5253 4.74388 19.147 4.74388 18.7109H4.29388H3.84388C3.84388 19.6361 3.93056 20.3175 3.93676 20.3636L4.38275 20.3037ZM4.29388 18.7109L4.74388 18.7109C4.74389 18.2733 4.76452 17.8937 4.78556 17.6207C4.79607 17.4843 4.80665 17.3749 4.81475 17.2986C4.81879 17.2605 4.82221 17.2307 4.82468 17.21C4.82591 17.1996 4.8269 17.1916 4.82761 17.1859C4.82836 17.18 4.82872 17.1773 4.82868 17.1776L4.38275 17.1172L3.93682 17.0568C3.93113 17.0989 3.8439 17.7826 3.84388 18.7109L4.29388 18.7109ZM4.38275 17.1172L4.82891 17.1758C4.86206 16.9237 4.80842 16.6564 4.72412 16.4388C4.64227 16.2275 4.50121 15.9852 4.28895 15.8344L4.02826 16.2012L3.76757 16.568C3.76652 16.5672 3.77088 16.5702 3.77959 16.5796C3.78815 16.5888 3.79908 16.6022 3.81148 16.6204C3.83669 16.6574 3.86267 16.7065 3.88488 16.7639C3.93238 16.8865 3.94455 16.998 3.93659 17.0585L4.38275 17.1172ZM4.02826 16.2012L4.28882 15.8343L2.65113 14.6712L2.39056 15.0381L2.13 15.405L3.7677 16.5681L4.02826 16.2012ZM2.39056 15.0381L2.65125 14.6713C2.2943 14.4176 2.01628 13.9897 1.89767 13.4444L1.45795 13.54L1.01823 13.6357C1.17702 14.3658 1.56346 15.0023 2.12988 15.4049L2.39056 15.0381ZM1.45795 13.54L1.89765 13.4443C1.77932 12.9008 1.84144 12.3373 2.06451 11.8621L1.65717 11.6709L1.24983 11.4797C0.939501 12.1406 0.859494 12.9065 1.01825 13.6358L1.45795 13.54ZM1.65717 11.6709L2.06449 11.8622L3.57133 8.65318L3.164 8.46191L2.75667 8.27065L1.24984 11.4796L1.65717 11.6709ZM3.164 8.46191L3.57128 8.65328C3.79437 8.17849 4.13978 7.86865 4.52163 7.74283L4.3808 7.31543L4.23997 6.88803C3.58606 7.1035 3.06716 7.60985 2.75672 8.27055L3.164 8.46191ZM4.3808 7.31543L4.52111 7.74299C4.89839 7.61918 5.29026 7.67765 5.64082 7.92651L5.90131 7.55957L6.1618 7.19263C5.58826 6.78547 4.90035 6.67132 4.24048 6.88787L4.3808 7.31543ZM5.90131 7.55957L5.64085 7.92653L7.27952 9.08962L7.53998 8.72266L7.80044 8.35569L6.16177 7.19261L5.90131 7.55957ZM7.53998 8.72266L7.27963 9.0897C7.50294 9.24809 7.77561 9.2871 8.00395 9.26489C8.23357 9.24256 8.4903 9.15161 8.68118 8.96101L8.36322 8.64258L8.04526 8.32414C8.03605 8.33334 7.99292 8.36172 7.91683 8.36912C7.8829 8.37242 7.85265 8.37021 7.82966 8.36525C7.80624 8.3602 7.79819 8.3541 7.80033 8.35562L7.53998 8.72266ZM8.36322 8.64258L8.68362 8.95856C8.68326 8.95892 8.70957 8.93257 8.75959 8.88542C8.80894 8.83891 8.88028 8.7732 8.97014 8.69442C9.15027 8.53652 9.40269 8.32799 9.69994 8.1169L9.43939 7.75L9.17884 7.3831C8.52549 7.84708 8.07225 8.29676 8.04282 8.3266L8.36322 8.64258ZM9.43939 7.75L9.70012 8.11677C10.2855 7.70066 10.7837 7.46332 10.7984 7.45633L10.6054 7.0498L10.4124 6.64328C10.3723 6.66234 9.82287 6.92528 9.17867 7.38323L9.43939 7.75ZM10.6054 7.0498L10.7975 7.45673C11.0375 7.34344 11.2133 7.12253 11.3228 6.92678C11.4365 6.72355 11.5241 6.46701 11.5242 6.21201L11.0742 6.21191L10.6242 6.21181C10.6241 6.27377 10.5978 6.37932 10.5374 6.48737C10.509 6.53802 10.4786 6.57914 10.4514 6.60829C10.4226 6.63917 10.4078 6.64549 10.4133 6.64288L10.6054 7.0498ZM11.0742 6.21191H11.5242V3.88672H11.0742H10.6242V6.21191H11.0742ZM11.0742 3.88672H11.5242C11.5242 2.68489 12.3049 1.872 13.0791 1.87187L13.079 1.42188L13.079 0.971875C11.6433 0.972107 10.6242 2.37012 10.6242 3.88672H11.0742ZM13.079 1.42188V1.87187H16.0927V1.42188V0.971875H13.079V1.42188ZM13.0781 2.64453L13.0777 2.19453C12.1905 2.19523 11.6194 3.04441 11.6193 3.88566L12.0693 3.88574L12.5193 3.88582C12.5194 3.35856 12.8528 3.09471 13.0784 3.09453L13.0781 2.64453ZM12.0693 3.88574H11.6193V6.21094H12.0693H12.5193V3.88574H12.0693ZM12.0693 6.21094H11.6193C11.6193 6.53485 11.5215 6.8818 11.3555 7.17844C11.1875 7.47887 10.9719 7.68911 10.7698 7.78443L10.9619 8.19141L11.1539 8.59838C11.5723 8.40094 11.9104 8.02993 12.141 7.61781C12.3736 7.2019 12.5193 6.705 12.5193 6.21094H12.0693ZM10.9619 8.19141L10.7746 7.78222C10.7367 7.79954 10.2429 8.03822 9.67666 8.44088L9.93744 8.80762L10.1982 9.17435C10.7087 8.81138 11.1509 8.59977 11.1491 8.60059L10.9619 8.19141ZM9.93744 8.80762L9.67666 8.44088C9.10164 8.84977 8.69401 9.25046 8.67111 9.2735L8.99017 9.59082L9.30924 9.90814C9.30718 9.91022 9.39929 9.81901 9.55862 9.67996C9.71739 9.5414 9.93944 9.35836 10.1982 9.17435L9.93744 8.80762ZM8.99017 9.59082L8.67208 9.27251C8.30396 9.64039 7.69213 9.69004 7.30325 9.41421L7.04291 9.78125L6.78256 10.1483C7.54645 10.6901 8.64495 10.572 9.30826 9.90913L8.99017 9.59082ZM7.04291 9.78125L7.30351 9.41439L5.66484 8.25033L5.40424 8.61719L5.14363 8.98405L6.7823 10.1481L7.04291 9.78125ZM5.40424 8.61719L5.6637 8.24952C5.32094 8.00764 4.90027 7.93549 4.49722 8.06888L4.63861 8.49609L4.78 8.9233C4.89921 8.88385 5.02397 8.8996 5.14478 8.98486L5.40424 8.61719ZM4.63861 8.49609L4.49812 8.06859C4.10031 8.19932 3.79601 8.50255 3.61813 8.88073L4.02533 9.07227L4.43253 9.2638C4.52265 9.07221 4.65299 8.96505 4.7791 8.9236L4.63861 8.49609ZM4.02533 9.07227L3.61798 8.88104L2.11114 12.091L2.51849 12.2822L2.92585 12.4734L4.43268 9.26349L4.02533 9.07227ZM2.51849 12.2822L2.11087 12.0916C1.93404 12.4697 1.88866 12.9049 1.97925 13.3197L2.41888 13.2236L2.85852 13.1276C2.80868 12.8994 2.83569 12.6662 2.92612 12.4729L2.51849 12.2822ZM2.41888 13.2236L1.97915 13.3192C2.069 13.7326 2.28983 14.1061 2.6272 14.3455L2.88763 13.9785L3.14807 13.6115C3.02198 13.5221 2.9087 13.3585 2.85862 13.128L2.41888 13.2236ZM2.88763 13.9785L2.62704 14.3454L3.15634 14.7214L3.41693 14.3545L3.67753 13.9876L3.14823 13.6117L2.88763 13.9785ZM3.41693 14.3545L3.15654 14.7215C3.15932 14.7235 3.2683 14.8008 4.26476 15.5085L4.52533 15.1416L4.78591 14.7747C3.78946 14.067 3.68032 13.9896 3.67733 13.9875L3.41693 14.3545ZM4.52533 15.1416L4.26502 15.5087C4.46172 15.6482 4.65235 15.9058 4.78149 16.2393C4.90932 16.5695 4.96084 16.9338 4.91899 17.253L5.36517 17.3115L5.81136 17.37C5.87542 16.8813 5.79523 16.365 5.62078 15.9144C5.44763 15.4672 5.16538 15.0438 4.78564 14.7745L4.52533 15.1416ZM5.36517 17.3115L4.91869 17.2554C4.91576 17.2787 4.839 17.8909 4.839 18.7109L5.289 18.7109L5.739 18.7109C5.739 17.9425 5.81126 17.3708 5.81166 17.3676L5.36517 17.3115ZM5.289 18.7109H4.839C4.839 19.121 4.8582 19.4785 4.87767 19.736C4.88742 19.8649 4.89726 19.9692 4.90487 20.0429C4.90867 20.0797 4.91192 20.1089 4.91432 20.1297C4.91668 20.1502 4.91838 20.1639 4.91836 20.1638L5.36517 20.1104L5.81199 20.0569C5.81096 20.0483 5.739 19.4776 5.739 18.7109H5.289ZM5.36517 20.1104L4.91896 20.1686C4.96055 20.4873 4.90898 20.8517 4.7811 21.1822C4.65191 21.5161 4.46136 21.7739 4.26492 21.9133L4.52533 22.2803L4.78574 22.6473C5.16542 22.3779 5.44744 21.9541 5.62046 21.507C5.7948 21.0564 5.87509 20.5402 5.81139 20.0521L5.36517 20.1104ZM4.52533 22.2803L4.26519 21.9131L3.15972 22.6963L3.41986 23.0635L3.68001 23.4307L4.78547 22.6475L4.52533 22.2803ZM3.41986 23.0635L3.14923 22.704C3.07946 22.7565 2.94021 22.8552 2.62955 23.0751L2.88959 23.4424L3.14963 23.8096C3.45227 23.5954 3.60713 23.4858 3.6905 23.423L3.41986 23.0635ZM2.88959 23.4424L2.62835 23.076C2.29182 23.3159 2.07097 23.6887 1.98108 24.1028L2.42084 24.1982L2.86059 24.2937C2.91064 24.0632 3.0239 23.8993 3.15083 23.8088L2.88959 23.4424ZM2.42084 24.1982L1.98121 24.1022C1.89095 24.5152 1.93415 24.9512 2.11202 25.3307L2.51947 25.1396L2.92692 24.9486C2.83694 24.7567 2.81042 24.5233 2.86046 24.2943L2.42084 24.1982ZM2.51947 25.1396L2.11212 25.3309L3.61896 28.5408L4.02631 28.3496L4.43366 28.1584L2.92682 24.9484L2.51947 25.1396ZM4.02631 28.3496L3.61903 28.541C3.80424 28.9351 4.11772 29.2287 4.49892 29.354C4.88519 29.481 5.30927 29.4231 5.66651 29.1698L5.40619 28.8027L5.14587 28.4357C5.02018 28.5248 4.89336 28.5363 4.77994 28.499C4.66145 28.4601 4.52646 28.3559 4.43359 28.1582L4.02631 28.3496ZM5.40619 28.8027L5.66634 29.1699C5.93889 28.9768 6.10046 28.863 6.20051 28.7909L5.93744 28.4258L5.67437 28.0607C5.57821 28.13 5.4226 28.2396 5.14604 28.4356L5.40619 28.8027ZM5.93744 28.4258L6.19786 28.7928L7.30431 28.0076L7.04388 27.6406L6.78346 27.2736L5.67702 28.0588L5.93744 28.4258ZM7.04388 27.6406L7.3051 28.0071C7.69133 27.7317 8.30418 27.7805 8.6734 28.1487L8.99115 27.8301L9.3089 27.5114C8.64545 26.8498 7.5454 26.7305 6.78267 27.2742L7.04388 27.6406ZM8.99115 27.8301L8.63036 28.099C8.63877 28.1103 8.64589 28.1187 8.64836 28.1216C8.65173 28.1256 8.65451 28.1287 8.65618 28.1306C8.65952 28.1343 8.66224 28.1372 8.66358 28.1386C8.66643 28.1417 8.66885 28.1442 8.6701 28.1455C8.67289 28.1483 8.67566 28.1511 8.67795 28.1534C8.68277 28.1582 8.68878 28.1642 8.69577 28.171C8.70986 28.1847 8.72946 28.2036 8.75411 28.2268C8.80343 28.2733 8.87382 28.3381 8.96175 28.4151C9.13717 28.5689 9.38506 28.7739 9.67688 28.9811L9.93744 28.6143L10.198 28.2474C9.93717 28.0621 9.71363 27.8774 9.55493 27.7383C9.4758 27.6689 9.41345 27.6115 9.37137 27.5719C9.35032 27.552 9.33456 27.5368 9.32449 27.527C9.3194 27.522 9.31613 27.5188 9.31459 27.5173C9.31371 27.5164 9.31402 27.5167 9.3151 27.5178C9.31549 27.5182 9.31724 27.52 9.31961 27.5225C9.3207 27.5237 9.32324 27.5264 9.32642 27.5299C9.32802 27.5317 9.33074 27.5348 9.33405 27.5387C9.33647 27.5415 9.34355 27.5499 9.35194 27.5611L8.99115 27.8301ZM9.93744 28.6143L9.67669 28.981C10.2531 29.3908 10.7454 29.626 10.7725 29.6387L10.9638 29.2314L11.1551 28.8241C11.1571 28.8251 10.7162 28.6158 10.1982 28.2475L9.93744 28.6143ZM10.9638 29.2314L10.7718 29.6384C10.9737 29.7337 11.189 29.9439 11.3569 30.2445C11.5226 30.5413 11.6203 30.8883 11.6203 31.2119H12.0703H12.5203C12.5203 30.7184 12.375 30.2217 12.1427 29.8057C11.9125 29.3935 11.5746 29.0221 11.1558 28.8245L10.9638 29.2314ZM12.0703 31.2119H11.6203V33.5352H12.0703H12.5203V31.2119H12.0703ZM12.0703 33.5352H11.6203C11.6203 34.3772 12.1927 35.2261 13.0799 35.2264L13.08 34.7764L13.0802 34.3264C12.8541 34.3263 12.5203 34.0622 12.5203 33.5352H12.0703ZM13.08 34.7764V35.2264H16.0937V34.7764V34.3264H13.08V34.7764ZM16.0937 34.7764V35.2264C16.9812 35.2264 17.5535 34.3772 17.5535 33.5352H17.1035H16.6535C16.6535 34.0624 16.3196 34.3264 16.0937 34.3264V34.7764ZM17.1035 33.5352H17.5535V31.2119H17.1035H16.6535V33.5352H17.1035ZM17.1035 31.2119H17.5535C17.5535 30.8884 17.6511 30.5414 17.8169 30.2446C17.9848 29.944 18.2002 29.7337 18.402 29.6384L18.2099 29.2314L18.0178 28.8245C17.5992 29.0221 17.2614 29.3935 17.0312 29.8057C16.7988 30.2216 16.6535 30.7184 16.6535 31.2119H17.1035ZM18.2099 29.2314L18.3591 29.656C18.37 29.6521 18.3785 29.6487 18.3806 29.6478C18.3842 29.6463 18.387 29.6451 18.3886 29.6445C18.3918 29.6431 18.3943 29.6419 18.3956 29.6414C18.3983 29.6402 18.4005 29.6391 18.4018 29.6385C18.4046 29.6372 18.4076 29.6358 18.4103 29.6345C18.4158 29.6318 18.4229 29.6284 18.4313 29.6243C18.4482 29.616 18.4716 29.6043 18.5007 29.5893C18.559 29.5594 18.6409 29.5161 18.7401 29.4603C18.938 29.349 19.2074 29.1867 19.4969 28.9811L19.2363 28.6143L18.9757 28.2474C18.7178 28.4305 18.4763 28.5761 18.2989 28.6758C18.2105 28.7256 18.1386 28.7635 18.0896 28.7887C18.065 28.8013 18.0464 28.8107 18.0343 28.8166C18.0282 28.8196 18.0241 28.8215 18.022 28.8226C18.0208 28.8231 18.0208 28.8231 18.0215 28.8228C18.0218 28.8227 18.0232 28.822 18.0253 28.8211C18.0263 28.8206 18.0286 28.8196 18.0316 28.8183C18.0331 28.8176 18.0358 28.8165 18.0393 28.815C18.0414 28.8142 18.0498 28.8107 18.0607 28.8069L18.2099 29.2314ZM19.2363 28.6143L19.4968 28.9812C20.0697 28.5744 20.4833 28.169 20.5154 28.134L20.1835 27.8301L19.8517 27.5261C19.8664 27.51 19.5015 27.874 18.9757 28.2474L19.2363 28.6143ZM20.1835 27.8301L20.5014 28.1486C20.8699 27.781 21.4824 27.7318 21.8701 28.0074L22.1308 27.6406L22.3915 27.2738C21.6284 26.7314 20.5292 26.8495 19.8657 27.5115L20.1835 27.8301ZM22.1308 27.6406L21.8703 28.0075L23.507 29.1697L23.7675 28.8027L24.028 28.4358L22.3913 27.2737L22.1308 27.6406ZM23.7675 28.8027L23.5072 29.1698C23.851 29.4136 24.2716 29.4851 24.6743 29.3521L24.5331 28.9248L24.392 28.4975C24.2727 28.5369 24.1486 28.5213 24.0278 28.4357L23.7675 28.8027ZM24.5331 28.9248L24.6748 29.3519C25.0706 29.2207 25.3759 28.9193 25.5546 28.5391L25.1474 28.3477L24.7402 28.1562C24.6502 28.3476 24.5193 28.4553 24.3915 28.4977L24.5331 28.9248ZM25.1474 28.3477L25.5547 28.5389L27.0616 25.3299L26.6542 25.1387L26.2469 24.9474L24.7401 28.1564L25.1474 28.3477ZM26.6542 25.1387L27.0616 25.3298C27.2393 24.951 27.283 24.5145 27.1925 24.1011L26.7529 24.1973L26.3133 24.2935C26.3634 24.5224 26.3366 24.7561 26.2468 24.9476L26.6542 25.1387ZM26.7529 24.1973L27.1925 24.1013C27.1023 23.6878 26.8823 23.3158 26.5451 23.0758L26.2841 23.4424L26.0232 23.809C26.1501 23.8993 26.2628 24.0623 26.3132 24.2932L26.7529 24.1973ZM26.2841 23.4424L26.5445 23.0754L24.9068 21.9133L24.6464 22.2803L24.386 22.6473L26.0237 23.8094L26.2841 23.4424ZM24.6464 22.2803L24.9069 21.9133C24.7106 21.7739 24.5202 21.5164 24.3913 21.1827C24.2636 20.8524 24.2121 20.488 24.2538 20.1686L23.8076 20.1104L23.3613 20.0521C23.2976 20.5405 23.3776 21.0566 23.5518 21.5072C23.7246 21.9543 24.0064 22.3778 24.3859 22.6472L24.6464 22.2803ZM23.8076 20.1104L24.2541 20.1662C24.254 20.1671 24.2542 20.165 24.2544 20.1637C24.2546 20.1621 24.2549 20.1598 24.2552 20.157C24.2559 20.1514 24.2568 20.1435 24.258 20.1335C24.2603 20.1135 24.2635 20.085 24.2673 20.0486C24.2749 19.976 24.2848 19.872 24.2946 19.7429C24.3142 19.4849 24.3337 19.1246 24.3337 18.7109H23.8837H23.4337C23.4337 19.0972 23.4155 19.4341 23.3972 19.6746C23.388 19.7947 23.3789 19.8903 23.3721 19.9555C23.3687 19.9881 23.3659 20.0131 23.364 20.0297C23.3621 20.046 23.361 20.0544 23.361 20.0545L23.8076 20.1104ZM23.8837 18.7109L24.3337 18.7109C24.3337 17.8969 24.2548 17.2497 24.2568 17.2841L23.8076 17.3105L23.3583 17.337C23.3612 17.3851 23.4337 17.9261 23.4337 18.7109L23.8837 18.7109ZM23.8076 17.3105L24.2537 17.252C24.2119 16.9332 24.2633 16.5691 24.391 16.2391C24.52 15.9056 24.7104 15.648 24.9069 15.5086L24.6464 15.1416L24.386 14.7746C24.0065 15.044 23.7245 15.4673 23.5516 15.9144C23.3774 16.3648 23.2973 16.8808 23.3614 17.3691L23.8076 17.3105ZM24.6464 15.1416L24.9071 15.5084L26.5438 14.3453L26.2831 13.9785L26.0225 13.6117L24.3858 14.7748L24.6464 15.1416ZM26.2831 13.9785L26.5433 14.3457C26.8823 14.1054 27.1007 13.7311 27.1906 13.3196L26.7509 13.2236L26.3113 13.1276C26.2606 13.3599 26.148 13.5227 26.0229 13.6114L26.2831 13.9785ZM26.7509 13.2236L27.1905 13.3198C27.281 12.9065 27.2376 12.4707 27.0597 12.0912L26.6523 12.2822L26.2448 12.4732C26.3349 12.6654 26.3614 12.8985 26.3113 13.1274L26.7509 13.2236ZM26.6523 12.2822L27.0596 12.091L25.5528 8.88104L25.1454 9.07227L24.7381 9.26349L26.2449 12.4734L26.6523 12.2822ZM25.1454 9.07227L25.5526 8.88072C25.3743 8.50161 25.0694 8.20001 24.6727 8.06958L24.5322 8.49707L24.3916 8.92456C24.5183 8.96622 24.6485 9.07304 24.7382 9.26381L25.1454 9.07227ZM24.5322 8.49707L24.6732 8.06976C24.2692 7.93635 23.8493 8.00761 23.5054 8.25268L23.7665 8.61914L24.0277 8.9856C24.1473 8.90035 24.2698 8.88434 24.3911 8.92438L24.5322 8.49707ZM23.7665 8.61914L23.5062 8.25208L21.8676 9.41419L22.1279 9.78125L22.3882 10.1483L24.0269 8.98621L23.7665 8.61914ZM22.1279 9.78125L21.8672 9.41441C21.4797 9.68977 20.8665 9.64038 20.4988 9.27265L20.1806 9.59082L19.8624 9.90899C20.5253 10.5721 21.6257 10.69 22.3885 10.1481L22.1279 9.78125ZM20.1806 9.59082L20.5038 9.27765C20.4769 9.24994 20.0686 8.84857 19.495 8.44084L19.2343 8.80762L18.9736 9.1744C19.4943 9.54452 19.8613 9.90793 19.8575 9.90399L20.1806 9.59082ZM19.2343 8.80762L19.4948 8.44069C18.9194 8.03214 18.4193 7.79235 18.3964 7.78179L18.2079 8.19043L18.0195 8.59907C18.0066 8.59312 18.4553 8.80638 18.9738 9.17454L19.2343 8.80762ZM18.2079 8.19043L18.4001 7.78349C18.1984 7.6883 17.9831 7.47825 17.8151 7.17794C17.6494 6.88145 17.5516 6.53463 17.5515 6.21083L17.1015 6.21094L16.6515 6.21104C16.6516 6.70483 16.7972 7.20147 17.0296 7.61718C17.2599 8.02907 17.5977 8.39997 18.0158 8.59736L18.2079 8.19043ZM17.1015 6.21094H17.5515V3.88574H17.1015H16.6515V6.21094H17.1015ZM17.1015 3.88574L17.5515 3.88566C17.5514 3.04392 16.9793 2.19453 16.0917 2.19453V2.64453V3.09453C16.3175 3.09453 16.6514 3.3585 16.6515 3.88582L17.1015 3.88574ZM16.0917 2.64453V2.19453H13.0781V2.64453V3.09453H16.0917V2.64453ZM14.5849 11.9844L14.5849 12.4344C17.2693 12.4345 19.6046 15.1599 19.6046 18.7119L20.0546 18.7119L20.5046 18.7119C20.5046 14.8459 17.9315 11.5345 14.5849 11.5344L14.5849 11.9844ZM20.0546 18.7119L19.6046 18.7119C19.6044 22.2636 17.2692 24.9884 14.5849 24.9885L14.5849 25.4385L14.5849 25.8885C17.9313 25.8883 20.5044 22.5778 20.5046 18.7119L20.0546 18.7119ZM14.5849 25.4385L14.5849 24.9885C11.9005 24.9885 9.56538 22.2637 9.56517 18.7119L9.11517 18.7119L8.66517 18.7119C8.6654 22.5779 11.2384 25.8885 14.5849 25.8885L14.5849 25.4385ZM9.11517 18.7119L9.56517 18.7119C9.56519 15.1598 11.9004 12.4344 14.5849 12.4344L14.5849 11.9844L14.5849 11.5344C11.2382 11.5344 8.66519 14.8458 8.66517 18.7119L9.11517 18.7119ZM14.5849 13.209V12.759C11.7865 12.759 9.66031 15.5215 9.66029 18.7129L10.1103 18.7129L10.5603 18.7129C10.5603 15.8354 12.4488 13.659 14.5849 13.659V13.209ZM10.1103 18.7129L9.66029 18.7129C9.66051 21.9038 11.7867 24.6658 14.5849 24.6658V24.2158V23.7658C12.4488 23.7658 10.5605 21.5897 10.5603 18.7129L10.1103 18.7129ZM14.5849 24.2158L14.585 24.6658C17.3829 24.6655 19.5093 21.9036 19.5095 18.7129L19.0595 18.7129L18.6095 18.7129C18.6093 21.5895 16.7208 23.7655 14.5848 23.7658L14.5849 24.2158ZM19.0595 18.7129L19.5095 18.7129C19.5095 15.5216 17.383 12.7593 14.585 12.759L14.5849 13.209L14.5848 13.659C16.7208 13.6593 18.6095 15.8357 18.6095 18.7129L19.0595 18.7129Z" fill="#39AAE3"/>
</svg>
