<svg width="8" height="8" viewBox="0 0 8 8" fill="none" xmlns="http://www.w3.org/2000/svg">
<path d="M7.7696 4.32937C7.84066 4.29267 7.89875 4.24356 7.93889 4.18628C7.97903 4.129 8 4.06525 8 4.00054C8 3.93583 7.97903 3.87209 7.93889 3.8148C7.89875 3.75752 7.84066 3.70842 7.7696 3.67172L0.836743 0.071434C0.756778 0.0297608 0.663118 0.00532293 0.565938 0.00077486C0.468757 -0.00377274 0.371773 0.0117431 0.285524 0.0456381C0.199274 0.0795326 0.127057 0.130509 0.0767191 0.193029C0.0263811 0.25555 -0.000152706 0.327222 6.61103e-07 0.40026L6.61103e-07 7.60082C0.000401918 7.67369 0.027277 7.7451 0.0777355 7.80737C0.128194 7.86964 0.200327 7.92041 0.286377 7.95422C0.372427 7.98804 0.469139 8.00362 0.566112 7.99929C0.663084 7.99496 0.756648 7.97088 0.836743 7.92965L7.7696 4.32937Z" fill="white"/>
</svg>
