<svg width="25" height="25" viewBox="0 0 25 25" fill="none" xmlns="http://www.w3.org/2000/svg">
<path d="M4.0625 12.9688V4.0625H10.1562V12.9688H4.0625Z" fill="white"/>
<path d="M14.8438 7.34375V4.0625H20.9375V7.34375H14.8438Z" fill="white"/>
<path d="M14.8438 20.9375V12.0312H20.9375V20.9375H14.8438Z" fill="white"/>
<path d="M4.0625 20.9375V17.6562H10.1562V20.9375H4.0625Z" fill="white"/>
<path fill-rule="evenodd" clip-rule="evenodd" d="M13.2812 3.125C13.2812 2.77982 13.5611 2.5 13.9062 2.5H21.875C22.2202 2.5 22.5 2.77982 22.5 3.125V8.28125C22.5 8.62643 22.2202 8.90625 21.875 8.90625H13.9062C13.5611 8.90625 13.2812 8.62643 13.2812 8.28125V3.125ZM14.8438 4.0625V7.34375H20.9375V4.0625H14.8438ZM13.2812 11.0938C13.2812 10.7486 13.5611 10.4688 13.9062 10.4688H21.875C22.2202 10.4688 22.5 10.7486 22.5 11.0938V21.875C22.5 22.2202 22.2202 22.5 21.875 22.5H13.9062C13.5611 22.5 13.2812 22.2202 13.2812 21.875V11.0938ZM14.8438 12.0312V20.9375H20.9375V12.0312H14.8438Z" fill="white"/>
<path fill-rule="evenodd" clip-rule="evenodd" d="M11.0938 2.5H3.125C2.77982 2.5 2.5 2.77982 2.5 3.125V13.9062C2.5 14.2514 2.77982 14.5312 3.125 14.5312H11.0938C11.4389 14.5312 11.7188 14.2514 11.7188 13.9062V3.125C11.7188 2.77982 11.4389 2.5 11.0938 2.5ZM4.0625 4.0625V12.9688H10.1562V4.0625H4.0625Z" fill="white"/>
<path fill-rule="evenodd" clip-rule="evenodd" d="M11.0938 16.0938H3.125C2.77982 16.0938 2.5 16.3736 2.5 16.7188V21.875C2.5 22.2202 2.77982 22.5 3.125 22.5H11.0938C11.4389 22.5 11.7188 22.2202 11.7188 21.875V16.7188C11.7188 16.3736 11.4389 16.0938 11.0938 16.0938ZM4.0625 17.6562V20.9375H10.1562V17.6562H4.0625Z" fill="white"/>
</svg>
