<svg width="23" height="23" viewBox="0 0 23 23" fill="none" xmlns="http://www.w3.org/2000/svg">
<path d="M21.9154 11.0493C21.9154 16.5526 17.251 21.0146 11.4987 21.0146C10.8223 21.0155 10.1479 20.953 9.4835 20.8282C9.00529 20.7384 8.76618 20.6935 8.59925 20.719C8.43232 20.7445 8.19576 20.8703 7.72264 21.1219C6.38426 21.8336 4.82365 22.085 3.32277 21.8058C3.89322 21.1042 4.28281 20.2623 4.45472 19.3598C4.55888 18.8078 4.30078 18.2715 3.91421 17.8789C2.15842 16.096 1.08203 13.6934 1.08203 11.0493C1.08203 5.54604 5.74638 1.08398 11.4987 1.08398C17.251 1.08398 21.9154 5.54604 21.9154 11.0493Z" stroke="white" stroke-width="1.5" stroke-linejoin="round"/>
<path d="M11.494 11.5H11.5034M15.656 11.5H15.6654M7.33203 11.5H7.34138" stroke="white" stroke-width="2" stroke-linecap="round" stroke-linejoin="round"/>
</svg>
