<svg width="25" height="25" viewBox="0 0 25 25" fill="none" xmlns="http://www.w3.org/2000/svg">
<path fill-rule="evenodd" clip-rule="evenodd" d="M22.1366 4.68811H19.5323C19.1052 4.68811 18.7549 4.37856 18.7549 4.00555V2.24689C18.7549 1.00676 17.4671 0 15.8849 0H2.86343C1.28783 0 0 1.00676 0 2.24689V22.7531C0 23.9884 1.28783 25 2.86343 25H22.1366C23.7187 25 25 23.9884 25 22.7531V6.93501C25 5.69487 23.7187 4.68811 22.1366 4.68811Z" fill="white"/>
<path fill-rule="evenodd" clip-rule="evenodd" d="M22.9204 22.7532C22.9204 23.1302 22.5688 23.4358 22.1365 23.4358H2.86332C2.43622 23.4358 2.08594 23.1302 2.08594 22.7532V2.24702C2.08594 1.86912 2.43622 1.56445 2.86332 1.56445H15.8848C16.3171 1.56445 16.6687 1.86912 16.6687 2.24702V4.00567C16.6687 5.24092 17.95 6.24768 19.5322 6.24768H22.1365C22.5688 6.24768 22.9204 6.55723 22.9204 6.93513V22.7532Z" fill="white"/>
<path fill-rule="evenodd" clip-rule="evenodd" d="M5.20709 7.81238H13.5448C14.119 7.81238 14.5813 7.46182 14.5813 7.03021C14.5813 6.59958 14.119 6.24805 13.5448 6.24805H5.20709C4.63284 6.24805 4.16406 6.59958 4.16406 7.03021C4.16406 7.46182 4.63284 7.81238 5.20709 7.81238Z" fill="black"/>
<path fill-rule="evenodd" clip-rule="evenodd" d="M19.7899 10.416H5.20709C4.63284 10.416 4.16406 10.7627 4.16406 11.1982C4.16406 11.6288 4.63284 11.9755 5.20709 11.9755H19.7899C20.3706 11.9755 20.8329 11.6288 20.8329 11.1982C20.8329 10.7627 20.3706 10.416 19.7899 10.416Z" fill="black"/>
<path fill-rule="evenodd" clip-rule="evenodd" d="M19.7899 14.5801H5.20709C4.63284 14.5801 4.16406 14.9306 4.16406 15.3622C4.16406 15.7929 4.63284 16.1444 5.20709 16.1444H19.7899C20.3706 16.1444 20.8329 15.7929 20.8329 15.3622C20.8329 14.9306 20.3706 14.5801 19.7899 14.5801Z" fill="black"/>
<path fill-rule="evenodd" clip-rule="evenodd" d="M19.7899 18.748H5.20709C4.63284 18.748 4.16406 19.0996 4.16406 19.5302C4.16406 19.9608 4.63284 20.3124 5.20709 20.3124H19.7899C20.3706 20.3124 20.8329 19.9608 20.8329 19.5302C20.8329 19.0996 20.3706 18.748 19.7899 18.748Z" fill="black"/>
</svg>
