<svg width="25" height="25" viewBox="0 0 25 25" fill="none" xmlns="http://www.w3.org/2000/svg">
<g clip-path="url(#clip0_3049_27089)">
<path d="M3.125 5.20833V19.7917C3.125 20.9375 4.05208 21.875 5.20833 21.875H19.7917C20.9375 21.875 21.875 20.9375 21.875 19.7917V5.20833C21.875 4.0625 20.9375 3.125 19.7917 3.125H5.20833C4.05208 3.125 3.125 4.0625 3.125 5.20833ZM15.625 9.375C15.625 11.1042 14.2292 12.5 12.5 12.5C10.7708 12.5 9.375 11.1042 9.375 9.375C9.375 7.64583 10.7708 6.25 12.5 6.25C14.2292 6.25 15.625 7.64583 15.625 9.375ZM6.25 17.7083C6.25 15.625 10.4167 14.4792 12.5 14.4792C14.5833 14.4792 18.75 15.625 18.75 17.7083V18.75H6.25V17.7083Z" fill="white"/>
</g>
<defs>
<clipPath id="clip0_3049_27089">
<rect width="25" height="25" fill="white"/>
</clipPath>
</defs>
</svg>
