<svg width="25" height="25" viewBox="0 0 25 25" fill="none" xmlns="http://www.w3.org/2000/svg">
<path fill-rule="evenodd" clip-rule="evenodd" d="M0 0.78125C0 0.349778 0.349778 0 0.78125 0H24.2188C24.6502 0 25 0.349778 25 0.78125V24.2188C25 24.6502 24.6502 25 24.2188 25H0.78125C0.349778 25 0 24.6502 0 24.2188V0.78125ZM1.95312 1.95312V23.0469H23.0469V1.95312H1.95312Z" fill="white"/>
<path fill-rule="evenodd" clip-rule="evenodd" d="M13.0859 4.29688C13.3017 4.29688 13.4766 4.47176 13.4766 4.6875V20.3125C13.4766 20.5282 13.3017 20.7031 13.0859 20.7031H11.9141C11.6983 20.7031 11.5234 20.5282 11.5234 20.3125V4.6875C11.5234 4.47176 11.6983 4.29688 11.9141 4.29688H13.0859ZM7.03125 9.76562C7.24699 9.76562 7.42188 9.94051 7.42188 10.1562V20.3125C7.42188 20.5282 7.24699 20.7031 7.03125 20.7031H5.85938C5.64364 20.7031 5.46875 20.5282 5.46875 20.3125V10.1562C5.46875 9.94051 5.64364 9.76562 5.85938 9.76562H7.03125ZM19.1406 13.6719C19.3564 13.6719 19.5312 13.8468 19.5312 14.0625V20.3125C19.5312 20.5282 19.3564 20.7031 19.1406 20.7031H17.9688C17.753 20.7031 17.5781 20.5282 17.5781 20.3125V14.0625C17.5781 13.8468 17.753 13.6719 17.9688 13.6719H19.1406Z" fill="white"/>
</svg>
